<svg xmlns="http://www.w3.org/2000/svg" width="40" height="40" viewBox="0 0 40 40" fill="none" version="1.1" xmlns:xlink="http://www.w3.org/1999/xlink">
      <path d="M0 8.96C0 4.01153 4.01153 0 8.96 0H31.04C35.9885 0 40 4.01153 40 8.96V31.04C40 35.9885 35.9885 40 31.04 40H8.96C4.01153 40 0 35.9885 0 31.04V8.96Z" fill="#1565C0"></path>
      <path d="M9.44018 11.6816C11.8613 8.59939 15.617 6.61827 19.8395 6.61827C24.0621 6.61827 27.8198 8.59939 30.2389 11.6816H27.3054L25.0413 21.7711H24.9153L22.7482 11.6816H16.9329L14.8588 21.7711H14.7948L12.3736 11.6816H9.44018ZM28.5966 27.9975H22.2132L19.854 17.9679H19.7899L17.3709 27.9975H10.9875L7.21116 15.9041C6.82485 17.1478 6.6162 18.4678 6.6162 19.8395C6.6162 27.1422 12.5348 33.0608 19.8375 33.0608C27.1401 33.0608 33.0587 27.1422 33.0587 19.8395C33.0587 18.4554 32.8459 17.1209 32.4514 15.867L28.5945 27.9975H28.5966ZM36.1595 19.8395C36.1595 28.8527 28.8527 36.1595 19.8395 36.1595C10.8263 36.1595 3.51953 28.8527 3.51953 19.8395C3.51953 10.8263 10.8263 3.51953 19.8395 3.51953C28.8527 3.51953 36.1595 10.8263 36.1595 19.8395ZM34.6102 19.8395C34.6102 11.6816 27.9975 5.0689 19.8395 5.0689C11.6816 5.0689 5.0689 11.6816 5.0689 19.8395C5.0689 27.9975 11.6816 34.6102 19.8395 34.6102C27.9975 34.6102 34.6102 27.9975 34.6102 19.8395Z" fill="white"></path>
    </svg>
  