<svg xmlns="http://www.w3.org/2000/svg" width="400" height="400" viewBox="0 0 10000 10000" fill="currentColor" role="img" aria-label="TCS Logo"><g><g><path points="915.8,893.4 958,893.4 958,818.1 988,818.1 988,787.6 885.8,787.6 885.8,818.1 915.8,818.1 		" d="M4579 4467L4790 4467L4790 4090.5L4940 4090.5L4940 3938L4429 3938L4429 4090.5L4579 4090.5Z"/><path points="1019.1,893.4 1040.6,830.1 1062.1,893.4 1103.4,893.4 1062.9,787.6 1018.3,787.6 977.8,893.4 		" d="M5095.5 4467L5203 4150.5L5310.5 4467L5517 4467L5314.5 3938L5091.5 3938L4889 4467Z"/><path points="1123.2,893.4 1165.5,893.4 1165.5,818.1 1195.4,818.1 1195.4,787.6 1093.3,787.6 1093.3,818.1 1123.2,818.1 		" d="M5616 4467L5827.5 4467L5827.5 4090.5L5977 4090.5L5977 3938L5466.5 3938L5466.5 4090.5L5616 4090.5Z"/><path points="1226.6,893.4 1248.1,830.1 1269.6,893.4 1310.9,893.4 1270.4,787.6 1225.7,787.6 1185.3,893.4 		" d="M6133 4467L6240.5 4150.5L6348 4467L6554.5 4467L6352 3938L6128.5 3938L5926.5 4467Z"/><path d="M8159 4845c28 62.5 59.5 123.5 95 182.5l138 232.5h100V4731.5h-89.5v184.5c0 81 2 149 8.5 219l-2 0.5c-26 -61 -56 -120.5 -90 -177l-136.5 -227h-110.5v529h89.5v-189.5c0 -87 -1.5 -156.5 -5 -225.5z"/><path d="M7679.5 5111h168l48 149.5h103.5l-172 -529h-123l-169.5 529h100zm56.5 -204c9.5 -31.5 17.5 -68 25 -99.5h1.5c8 30.5 16.5 66.5 27 99.5l41.5 130.5H7695z"/><path d="M6105 5188.5c-44.5 -0.5 -88.5 -12 -128 -33.5l-21.5 80c29 17.5 87 33.5 143 33.5 136.5 0 200.5 -74 200.5 -159 0 -76 -44 -122 -136 -157 -70.5 -27 -101 -46 -101 -86.5 0 -31 26 -63.5 87.5 -63.5 36.5 -0.5 73 8.5 105.5 25l23 -78c-27.5 -14 -69.5 -26 -127 -26 -114.5 0 -187 65.5 -187 152 0 76 56 122.5 143.5 153.5 67 24.5 93.5 48 93.5 87.5 0 43 -34.5 72 -96 72"/><path d="M4716.5 4803c35.5 -0.5 70.5 6.5 103 20.5l21 -77c-19.5 -10.5 -64.5 -23.5 -128 -23.5 -161.5 0 -283 105 -283 279 0 161 102 266.5 270 266.5 64 0 114.5 -12.5 137 -24l-16 -76c-25.5 11.5 -66 19 -105.5 19 -116 0 -184 -74 -184 -190.5 0 -127 77.5 -194 185.5 -194"/><path points="1483.4,1052.1 1483.4,962.5 1513.9,962.5 1513.9,946.3 1433.8,946.3 1433.8,962.5 1464,962.5 1464,1052.1 		" d="M7417 5260.5L7417 4812.5L7569.5 4812.5L7569.5 4731.5L7169 4731.5L7169 4812.5L7320 4812.5L7320 5260.5Z"/><path d="m9348 4731.5 -63.5 135.5c-18 38.5 -32.5 71 -46 105h-1.5c-14.5 -36 -28 -66 -46 -105l-63 -135.5h-110.5l167.5 309v220h96.5v-223l175.5 -306z"/><path d="M5120.5 4723c-149.5 0 -252 114.5 -252 277 0 155 94.5 269 244 269h1c145 0 252.5 -101.5 252.5 -278.5 -0.5 -151 -91.5 -267.5 -245.5 -267.5m-4 468.5h-1c-92.5 0 -146.5 -89 -146 -194s50.5 -197.5 147 -197.5 146 94.5 146 194c0.5 111 -52.5 197.5 -146 197.5"/><path d="M8862.5 4803c35.5 -0.5 70.5 6.5 103 20.5l21 -77c-19.5 -10.5 -64.5 -23.5 -128 -23.5 -161.5 0 -283 105 -283 279 0 161 102 266.5 270 266.5 64 0 114.5 -12.5 137 -24l-16 -76c-25.5 11.5 -66 19 -105.5 19 -116 0 -184 -74 -184 -190.5 0 -127 77.5 -194 185.5 -194"/><path points="1401.1,946.3 1381.7,946.3 1381.7,1052.1 1444.6,1052.1 1444.6,1035.8 1401.1,1035.8 		" d="M7005.5 4731.5L6908.5 4731.5L6908.5 5260.5L7223 5260.5L7223 5179L7005.5 5179Z"/><path d="M6798.5 5033.5v-302h-96.5v308.5c0 103.5 -42 151.5 -111.5 151.5 -65.5 0 -108.5 -48 -108.5 -151.5v-308.5h-96.5v302.5c0 166.5 79.5 235 201.5 235 128 0 211.5 -72.5 211.5 -235.5"/><path d="M5868 4731.5h-89.5v184.5c0 81 2 149 8.5 219l-2 0.5c-26 -61 -56 -120.5 -90 -177l-136.5 -227h-110.5v529h89.5v-189.5c0 -87 -1.5 -156.5 -5 -225.5l2.5 -0.5c28 62.5 59.5 123.5 95 182.5l138 232.5h100z"/><path x="1237" y="1104.9" width="19.3" height="105.8" d="M6185 5524.5H6281.5V6053.5H6185V5524.5z"/><path d="M5520.5 5805.5v-2c49.5 -17.5 95.5 -63.5 95.5 -131 0 -45 -16.5 -81.5 -45 -105.5 -35.5 -29.5 -96.5 -42.5 -162 -42.5 -48.5 -0.5 -97.5 3 -145 11.5v517.5h95v-215.5h48.5c54.5 1.5 79.5 23.5 94.5 92 14.5 65 27 108.5 35 124h98.5c-10.5 -20.5 -25 -80.5 -41.5 -146.5 -13.5 -51.5 -35.5 -87.5 -73.5 -102m-105 -38h-56.5v-166c19.5 -4 39.5 -5.5 59.5 -5 62 0 102 27 102 84 0 52.5 -40 87 -105 87"/><path d="M5948 5766.5c-20.5 64 -40 129 -54 191h-1.5c-13.5 -64 -32 -126 -52 -192.5l-72 -240.5h-105.5l171 529h111l183 -529H6025z"/><path points="1390,1163.8 1429.9,1163.8 1429.9,1148 1390,1148 1390,1120.8 1432.2,1120.8 1432.2,1104.9 1370.7,1104.9 
			1370.7,1210.7 1434.6,1210.7 1434.6,1194.8 1390,1194.8 		" d="M6950 5819L7149.5 5819L7149.5 5740L6950 5740L6950 5604L7161 5604L7161 5524.5L6853.5 5524.5L6853.5 6053.5L7173 6053.5L7173 5974L6950 5974Z"/><path d="M6652 5596c35.5 -0.5 70.5 6.5 103 20.5l21 -77c-19.5 -10.5 -64.5 -23.5 -128 -23.5 -161.5 0 -283 105 -283 279 0 161 102 266.5 270 266.5 64 0 114.5 -12.5 137 -24l-16 -76c-25.5 11.5 -66 19 -105.5 19 -116 0 -184 -74 -184 -190.5 -0.5 -126.5 77 -194 185.5 -194"/><path d="M4636.5 5745.5c-70.5 -27 -101 -46 -101 -86.5 0 -31 26 -63.5 87.5 -63.5 36.5 -0.5 73 8.5 105.5 25l23 -78c-27.5 -14 -69.5 -26 -127 -26 -114.5 0 -187 65.5 -187 152 0 76 56 122.5 143.5 153.5 67 24.5 93.5 48 93.5 87.5 0 43.5 -34.5 72 -96 72 -44.5 -0.5 -88.5 -12 -127.5 -33.5l-21.5 80c29 17.5 87 33.5 143 33.5 136.5 0 200.5 -74 200.5 -159 -0.5 -75.5 -44.5 -122 -136.5 -157"/><path points="991.2,1163.8 1031.1,1163.8 1031.1,1148 991.2,1148 991.2,1120.8 1033.5,1120.8 1033.5,1104.9 971.9,1104.9 
			971.9,1210.7 1035.8,1210.7 1035.8,1194.8 991.2,1194.8 		" d="M4956 5819L5155.5 5819L5155.5 5740L4956 5740L4956 5604L5167.5 5604L5167.5 5524.5L4859.5 5524.5L4859.5 6053.5L5179 6053.5L5179 5974L4956 5974Z"/><path d="M7442 5745.5c-70.5 -27 -101 -46 -101 -86.5 0 -31 26 -63.5 87.5 -63.5 36.5 -0.5 73 8.5 105.5 25l23 -78c-27.5 -14 -69.5 -26 -127 -26 -114.5 0 -187 65.5 -187 152 0 76 56 122.5 143.5 153.5 67 24.5 93.5 48 93.5 87.5 0 43.5 -34.5 72 -96 72 -45 -0.5 -88.5 -12 -128 -33.5l-21.5 80c29 17.5 87 33.5 143 33.5 136.5 0 200.5 -74 200.5 -159 0 -75.5 -44.5 -122 -136 -157"/></g><path d="m3670 5165.5 -251.5 -175c-3 -2 -6 -4.5 -9 -6.5 -92 -68 -132 -131 -132 -205 0 -98 80 -159.5 193.5 -159.5 144 0 212 67.5 297.5 67.5 67.5 0 113.5 -46 113.5 -113.5 0 -49 -24.5 -89 -89 -119.5 -101.5 -49 -212 -67.5 -331.5 -67.5 -125.5 0 -236 37 -316 98 -16 12.5 -32 26 -46.5 40l-2 2c-91 98 -167.5 242 -228 443l-70.5 233c-126 411 -325 607.5 -635.5 607.5 -340.5 0 -555.5 -236.5 -555.5 -586 0 -343.5 207.5 -581 508.5 -589h16.5c102 -0.5 202.5 21.5 294.5 64.5 40 18.5 73.5 24.5 104.5 24.5 73.5 0 122.5 -49.5 122.5 -123 0 -46 -27.5 -92 -92 -122.5 -116.5 -58.5 -267 -92 -429.5 -92 -485 0 -819.5 343.5 -819.5 844 0 132 23.5 253 67.5 359.5 -64 138.5 -161 211.5 -288 211.5 -153.5 0 -254.5 -89 -254.5 -291.5V4644h359c83 0 138 -49 138 -119.5S1280 4405 1197 4405h-359v-313c0 -92 -61.5 -153.5 -147.5 -153.5s-147.5 61.5 -147.5 153.5v1451.5c0 337.5 193.5 515.5 521.5 515.5 68.5 0 136.5 -11 201.5 -33.5h1c107.5 -40.5 194 -111 255 -213 146 157.5 362.5 249.5 632 249.5 141 0 263.5 -27.5 374 -85.5h0.5c224 -116.5 383.5 -353 494 -715l64.5 -211.5c43 57.5 103.5 112 184 168.5l230 159.5c34 23.5 65 47.5 94 71 41.5 45.5 53.5 95 53.5 153 0 132 -104.5 221 -254.5 221 -144 0 -267 -73.5 -334.5 -73.5s-113.5 46 -113.5 113.5c0 49 24.5 89 89 119.5 89 43 233 80 362 80 162.5 0 297.5 -49 393 -135 4.5 -4 9 -8 13 -12.5 78 -79 125 -187.5 125 -312.5 0 -185 -73.5 -308 -258 -437"/></g></svg>